<?xml version="1.0" encoding="UTF-8"?>
<svg width="65px" height="77px" viewBox="0 0 65 77" version="1.1" xmlns="http://www.w3.org/2000/svg" xmlns:xlink="http://www.w3.org/1999/xlink">
    <!-- Generator: sketchtool 58 (101010) - https://sketch.com -->
    <title>55AF849C-C0CF-4920-8E1E-7CDFA75E40EF</title>
    <desc>Created with sketchtool.</desc>
    <g id="Page-1" stroke="none" stroke-width="1" fill="none" fill-rule="evenodd">
        <g id="Apple-TV" transform="translate(-1252.000000, -1578.000000)" fill="#FFFFFF" fill-rule="nonzero">
            <g id="header">
                <g id="management" transform="translate(1239.000000, 1568.000000)">
                    <g id="003-to-do-list" transform="translate(13.000000, 10.000000)">
                        <path d="M54.0268211,32 L28.9731789,32 C28.4366674,32 28,31.552534 28,31 C28,30.447466 28.4354645,30 28.9731789,30 L54.0268211,30 C54.5633326,30 55,30.447466 55,31 C55,31.552534 54.5645355,32 54.0268211,32 Z" id="Path"></path>
                        <path d="M54.0268211,53 L28.9731789,53 C28.4366674,53 28,52.552534 28,52 C28,51.447466 28.4354645,51 28.9731789,51 L54.0268211,51 C54.5633326,51 55,51.447466 55,52 C55,52.552534 54.5645355,53 54.0268211,53 Z" id="Path"></path>
                        <path d="M54.286303,5.48459052 L53.3327839,5.48459052 L53.3327839,1.18534483 C53.3327839,0.531034483 52.8006703,0 52.1423731,0 C51.484076,0 50.9519623,0.531034483 50.9519623,1.18534483 L50.9519623,5.48459052 L46.7855246,5.48459052 L46.7855246,1.18534483 C46.7855246,0.531034483 46.253411,0 45.5951138,0 C44.9368167,0 44.404703,0.531034483 44.404703,1.18534483 L44.404703,5.48459052 L40.2382653,5.48459052 L40.2382653,1.18534483 C40.2382653,0.531034483 39.7061517,0 39.0478545,0 C38.3895574,0 37.8574437,0.531034483 37.8574437,1.18534483 L37.8574437,5.48459052 L33.691006,5.48459052 L33.691006,1.18534483 C33.691006,0.531034483 33.1588924,0 32.5005952,0 C31.842298,0 31.3101844,0.531034483 31.3101844,1.18534483 L31.3101844,5.48459052 L27.1437467,5.48459052 L27.1437467,1.18534483 C27.1437467,0.531034483 26.6116331,0 25.9533359,0 C25.2950387,0 24.7629251,0.531034483 24.7629251,1.18534483 L24.7629251,5.48459052 L20.5964874,5.48459052 L20.5964874,1.18534483 C20.5964874,0.531034483 20.0643738,0 19.4060766,0 C18.7477794,0 18.2156658,0.531034483 18.2156658,1.18534483 L18.2156658,5.48459052 L14.0492281,5.48459052 L14.0492281,1.18534483 C14.0492281,0.531034483 13.5171144,0 12.8588173,0 C12.2005201,0 11.6684065,0.531034483 11.6684065,1.18534483 L11.6684065,5.48459052 L10.713697,5.48459052 C4.80568833,5.48459052 0,10.2710129 0,16.152694 L0,66.3318966 C0,72.2135776 4.80568833,77 10.713697,77 L54.286303,77 C60.1943117,77 65,72.2135776 65,66.3318966 L65,16.152694 C65,10.2710129 60.1943117,5.48459052 54.286303,5.48459052 Z M62.6191784,66.3330819 C62.6191784,70.9085129 58.8800982,74.6304957 54.286303,74.6304957 L10.713697,74.6304957 C6.11990184,74.6304957 2.38082157,70.9085129 2.38082157,66.3330819 L2.38082157,16.152694 C2.38082157,11.5772629 6.11990184,7.85528017 10.713697,7.85528017 L11.6684065,7.85528017 L11.6684065,11.2987069 C11.6684065,11.9530172 12.2005201,12.4840517 12.8588173,12.4840517 C13.5171144,12.4840517 14.0492281,11.9530172 14.0492281,11.2987069 L14.0492281,7.85528017 L18.2156658,7.85528017 L18.2156658,11.2987069 C18.2156658,11.9530172 18.7477794,12.4840517 19.4060766,12.4840517 C20.0643738,12.4840517 20.5964874,11.9530172 20.5964874,11.2987069 L20.5964874,7.85528017 L24.7629251,7.85528017 L24.7629251,11.2987069 C24.7629251,11.9530172 25.2950387,12.4840517 25.9533359,12.4840517 C26.6116331,12.4840517 27.1437467,11.9530172 27.1437467,11.2987069 L27.1437467,7.85528017 L31.3101844,7.85528017 L31.3101844,11.2987069 C31.3101844,11.9530172 31.842298,12.4840517 32.5005952,12.4840517 C33.1588924,12.4840517 33.691006,11.9530172 33.691006,11.2987069 L33.691006,7.85528017 L37.8574437,7.85528017 L37.8574437,11.2987069 C37.8574437,11.9530172 38.3895574,12.4840517 39.0478545,12.4840517 C39.7061517,12.4840517 40.2382653,11.9530172 40.2382653,11.2987069 L40.2382653,7.85528017 L44.404703,7.85528017 L44.404703,11.2987069 C44.404703,11.9530172 44.9368167,12.4840517 45.5951138,12.4840517 C46.253411,12.4840517 46.7855246,11.9530172 46.7855246,11.2987069 L46.7855246,7.85528017 L50.9519623,7.85528017 L50.9519623,11.2987069 C50.9519623,11.9530172 51.484076,12.4840517 52.1423731,12.4840517 C52.8006703,12.4840517 53.3327839,11.9530172 53.3327839,11.2987069 L53.3327839,7.85528017 L54.286303,7.85528017 C58.8800982,7.85528017 62.6191784,11.5772629 62.6191784,16.152694 L62.6191784,66.3330819 Z M22.1368789,26.499569 L16.2848195,35.8234914 C16.1110195,36.0996767 15.831273,36.2928879 15.5098621,36.3580819 C15.4324854,36.3734914 15.3539183,36.3817888 15.2765416,36.3817888 C15.031317,36.3817888 14.790854,36.3071121 14.5884841,36.1636853 L9.73398897,32.7368534 C9.19711371,32.3587284 9.07093017,31.6178879 9.45186162,31.0844828 C9.83041225,30.5498922 10.5732286,30.4230603 11.1112943,30.8023707 L14.9372745,33.5025862 L20.1203231,25.2442888 C20.467923,24.6895474 21.2012161,24.5188578 21.7607091,24.8673491 C22.3154405,25.2134698 22.4856693,25.9448276 22.1368789,26.499569 Z M22.1368789,47.5394397 L16.2848195,56.8633621 C16.1110195,57.1395474 15.831273,57.3327586 15.5098621,57.3979526 C15.4324854,57.4133621 15.3539183,57.4216595 15.2765416,57.4216595 C15.031317,57.4216595 14.790854,57.3469828 14.5884841,57.203556 L9.73398897,53.7767241 C9.19711371,53.3985991 9.07093017,52.6577586 9.45186162,52.1243534 C9.83041225,51.5885776 10.5732286,51.4641164 11.1112943,51.8422414 L14.9372745,54.5424569 L20.1203231,46.2841595 C20.467923,45.7294181 21.2012161,45.5599138 21.7607091,45.9072198 C22.3154405,46.2533405 22.4856693,46.9846983 22.1368789,47.5394397 Z" id="Shape"></path>
                    </g>
                </g>
            </g>
        </g>
    </g>
</svg>