<?xml version="1.0" encoding="UTF-8"?>
<svg width="231px" height="209px" viewBox="0 0 231 209" version="1.1" xmlns="http://www.w3.org/2000/svg" xmlns:xlink="http://www.w3.org/1999/xlink">
    <!-- Generator: sketchtool 58 (101010) - https://sketch.com -->
    <title>00890055-4F93-4005-8892-9378C10F84D0</title>
    <desc>Created with sketchtool.</desc>
    <g id="Page-1" stroke="none" stroke-width="1" fill="none" fill-rule="evenodd">
        <g id="Apple-TV" transform="translate(-257.000000, -1435.000000)" fill="#FFFFFF" fill-rule="nonzero">
            <g id="header">
                <g id="code" transform="translate(256.000000, 1427.000000)">
                    <g id="002-monitor" transform="translate(3.000000, 10.000000)">
                        <path d="M171.92656,76.8928386 L148.256886,53.0801472 C146.825999,51.6401722 144.505701,51.6397297 143.073495,53.0801472 C141.642168,54.5196798 141.642168,56.8544396 143.073495,58.2944146 L164.151914,79.5001936 L143.073495,100.70553 C141.642168,102.145063 141.642168,104.479822 143.073495,105.919797 C143.789598,106.640227 144.727394,107 145.66519,107 C146.602986,107 147.541222,106.639785 148.256446,105.92024 L171.92612,82.1075486 C173.357887,80.6675735 173.357887,78.3328137 171.92656,76.8928386 Z" id="Path" stroke="#11252E" stroke-width="3"></path>
                        <path d="M62.8482512,79.5001106 L83.9264917,58.2942677 C85.3578361,56.8547308 85.3578361,54.519964 83.9264917,53.0799846 C82.4955871,51.6400051 80.1748209,51.6400051 78.7434764,53.0799846 L55.0735083,76.8927478 C53.6421639,78.3322847 53.6421639,80.6670515 55.0735083,82.1070309 L78.7434764,105.919794 C79.4587088,106.640226 80.3969564,107 81.3347641,107 C82.2725718,107 83.2108194,106.639784 83.9260518,105.919352 C85.3573962,104.479815 85.3573962,102.145048 83.9260518,100.705069 L62.8482512,79.5001106 Z" id="Path" stroke="#11252E" stroke-width="3"></path>
                        <path d="M126.446293,42.1722587 C124.521263,41.5603364 122.465439,42.6305401 121.856241,44.5613972 L100.171778,113.223044 C99.5617019,115.154341 100.628237,117.215947 102.553707,117.827869 C102.921508,117.944971 103.293259,118 103.659304,118 C105.210828,118 106.65087,117.001114 107.144637,115.438731 L128.828222,46.7770842 C129.438298,44.8453467 128.371763,42.7837408 126.446293,42.1722587 Z" id="Path" stroke="#11252E" stroke-width="3"></path>
                        <path d="M208.93174,0 L18.0687033,0 C8.10595529,0 0,8.10439448 0,18.0652241 L0,44.3190649 C0,46.3590159 1.65417706,48.0124312 3.69407753,48.0124312 C5.733978,48.0124312 7.38815505,46.3585726 7.38815505,44.3190649 L7.38815505,18.0652241 C7.38815505,12.1767607 12.1795492,7.38673246 18.0687033,7.38673246 L208.93174,7.38673246 C214.821338,7.38673246 219.612288,12.177204 219.612288,18.0652241 L219.612288,144.137474 L196.46445,144.137474 C194.424106,144.137474 192.770373,145.791332 192.770373,147.83084 C192.770373,149.870348 194.42455,151.524206 196.46445,151.524206 L219.612288,151.524206 L219.612288,158.294343 C219.612288,164.182807 214.820894,168.972835 208.93174,168.972835 L140.029125,168.972835 L86.9713183,168.972835 L18.0687033,168.972835 C12.1791058,168.972835 7.38815505,164.182363 7.38815505,158.294343 L7.38815505,151.524206 L184.150563,151.524206 C186.190907,151.524206 187.84464,149.870348 187.84464,147.83084 C187.84464,145.791332 186.190463,144.137474 184.150563,144.137474 L7.38815505,144.137474 L7.38815505,56.6310245 C7.38815505,54.5910735 5.733978,52.9376583 3.69407753,52.9376583 C1.65417706,52.9376583 0,54.5910735 0,56.6310245 L0,158.29523 C0,168.256503 8.10595529,176.360454 18.0687033,176.360454 L81.3743386,176.360454 L72.2881138,197.613268 L54.53863,197.613268 C52.4982861,197.613268 50.8445524,199.267126 50.8445524,201.306634 C50.8445524,203.346141 52.4987295,205 54.53863,205 L172.46137,205 C174.501714,205 176.155448,203.346141 176.155448,201.306634 C176.155448,199.267126 174.501271,197.613268 172.46137,197.613268 L154.711886,197.613268 L145.625661,176.360454 L208.931297,176.360454 C218.894488,176.360454 227,168.256503 227,158.29523 L227,18.0652241 C227,8.10439448 218.894488,0 208.93174,0 Z M146.676869,197.612824 L80.3235749,197.612824 L86.636138,182.847338 L140.364749,182.847338 L146.676869,197.612824 Z" id="Shape" stroke="#11252E" stroke-width="3"></path>
                        <path d="M115.416095,158.561195 C114.610991,157.335013 113.067665,156.747239 111.650531,157.10252 C110.171142,157.473412 109.077901,158.810566 109.004289,160.338862 C108.851176,163.51782 112.834631,165.245698 115.032051,162.943127 C116.152213,161.769267 116.326779,159.914804 115.416095,158.561195 Z" id="Path"></path>
                    </g>
                </g>
            </g>
        </g>
    </g>
</svg>