<?xml version="1.0" encoding="UTF-8"?>
<svg width="76px" height="77px" viewBox="0 0 76 77" version="1.1" xmlns="http://www.w3.org/2000/svg" xmlns:xlink="http://www.w3.org/1999/xlink">
    <!-- Generator: sketchtool 58 (101010) - https://sketch.com -->
    <title>9969AA5B-9249-4306-B9E3-F3EA87FDB02E</title>
    <desc>Created with sketchtool.</desc>
    <g id="Page-1" stroke="none" stroke-width="1" fill="none" fill-rule="evenodd">
        <g id="Apple-TV" transform="translate(-1240.000000, -1437.000000)" fill="#FFFFFF" fill-rule="nonzero">
            <g id="header">
                <g id="ux" transform="translate(1226.000000, 1427.000000)">
                    <g id="002-ux" transform="translate(14.000000, 10.000000)">
                        <g id="Group" transform="translate(8.000000, 24.000000)">
                            <path d="M0.514791667,9.57338596 L5.898375,5.97311404 C5.98033333,5.91033333 6.10297917,5.88930702 6.20535417,5.88930702 C6.635125,5.88930702 7.18783333,6.34979825 7.18783333,6.936 C7.18783333,7.18727193 7.06504167,7.41751754 6.88085417,7.54292982 L2.582125,10.4315877 L6.88085417,13.3200965 C7.0651875,13.4247807 7.18783333,13.6550263 7.18783333,13.9270263 C7.18783333,14.5132281 6.635125,14.952693 6.20535417,14.952693 C6.10297917,14.952693 5.9801875,14.9316667 5.898375,14.868886 L0.514791667,11.2689123 C0.2078125,11.059693 0.0643125,10.7037368 0.0643125,10.4317368 C0.0643125,10.1595877 0.2078125,9.78290351 0.514791667,9.57338596 Z" id="Path"></path>
                            <path d="M18.5686667,0.907710526 C18.5686667,1.03342105 18.54825,1.13810526 18.4867083,1.24264035 L10.97425,16.5647105 C10.8513125,16.8159825 10.5853125,16.9624211 10.29875,16.9624211 C9.82785417,16.9624211 9.5003125,16.5647105 9.5003125,16.1880263 C9.5003125,16.0833421 9.520875,15.9786579 9.56170833,15.8741228 L17.0945833,0.48927193 C17.2175208,0.217122807 17.4426875,0.112587666 17.7086875,0.112587666 C18.1183333,0.112587666 18.5686667,0.426342105 18.5686667,0.907710526 Z" id="Path"></path>
                            <path d="M27.5339167,11.2689123 L22.1501875,14.8691842 C22.0682292,14.9319649 21.966,14.9529912 21.863625,14.9529912 C21.4132917,14.9529912 20.8811458,14.5135263 20.8811458,13.9273246 C20.8811458,13.6553246 21.0039375,13.4250789 21.1677083,13.3203947 L25.4868542,10.431886 L21.1677083,7.54322807 C21.0039375,7.41766667 20.8811458,7.18742105 20.8811458,6.93629825 C20.8811458,6.35009649 21.4132917,5.88960526 21.863625,5.88960526 C21.966,5.88960526 22.0682292,5.91063158 22.1501875,5.97341228 L27.5339167,9.57368421 C27.8408958,9.78305263 27.98425,10.159886 27.98425,10.4320351 C27.98425,10.7037368 27.8613125,11.059693 27.5339167,11.2689123 Z" id="Path"></path>
                        </g>
                        <g id="Group">
                            <path d="M43.9438583,44.9914609 L43.9438583,20.9236973 C43.9438583,18.2849434 41.8082283,16.1381172 39.1832362,16.1381172 L4.76481102,16.1381172 C2.1398189,16.1381172 0.00418897638,18.2849434 0.00418897638,20.9236973 L0.00418897638,44.9914609 C0.00418897638,47.6302148 2.1398189,49.777041 4.76481102,49.777041 L39.1833858,49.777041 C41.8082283,49.777041 43.9438583,47.6302148 43.9438583,44.9914609 Z M2.24813386,44.9914609 L2.24813386,20.9236973 C2.24813386,19.5288242 3.37706299,18.3939766 4.76466142,18.3939766 L39.1832362,18.3939766 C40.5708346,18.3939766 41.6997638,19.5288242 41.6997638,20.9236973 L41.6997638,44.9914609 C41.6997638,46.386334 40.5708346,47.5211816 39.1832362,47.5211816 L4.76481102,47.5211816 C3.37706299,47.5211816 2.24813386,46.386334 2.24813386,44.9914609 Z" id="Shape"></path>
                            <path d="M60.3012126,55.3517207 C57.0806378,55.3517207 54.4604331,57.9856621 54.4604331,61.2231211 C54.4604331,61.3068887 54.4622283,61.3903555 54.4658189,61.4733711 C54.462378,61.5096152 54.4604331,61.5464609 54.4604331,61.5836074 C54.4604331,61.679707 54.4724016,61.7727988 54.4948425,61.8618301 C54.8124567,64.8001621 57.2951732,67.0946719 60.3012126,67.0946719 C63.5217874,67.0946719 66.1419921,64.4607305 66.1419921,61.2231211 C66.1419921,57.9855117 63.521937,55.3517207 60.3012126,55.3517207 Z M60.3012126,57.6075801 C62.0224331,57.6075801 63.4652362,58.8295039 63.8163622,60.4556777 L56.7862126,60.4556777 C57.137189,58.8293535 58.5799921,57.6075801 60.3012126,57.6075801 Z M60.3012126,64.8388125 C58.8455433,64.8388125 57.589,63.9648926 57.0234882,62.7113867 L63.5787874,62.7113867 C63.0135748,63.9647422 61.7570315,64.8388125 60.3012126,64.8388125 Z" id="Shape"></path>
                            <path d="M72.8661969,57.3018359 L72.2745039,57.3018359 C72.0698425,56.6811738 71.8167087,56.0747988 71.5192913,55.4920352 L71.9443228,55.0647754 C72.5348189,54.471334 72.860063,53.6811816 72.860063,52.8400469 C72.860063,51.9990625 72.5349685,51.2089102 71.9443228,50.615168 L70.8538425,49.5191211 C70.2625984,48.9249277 69.4765669,48.5975273 68.6407165,48.5975273 C67.996063,48.5975273 67.3813307,48.7921328 66.8624961,49.1536719 L66.8624961,4.80678516 C66.8624961,2.15630078 64.7174409,0 62.0807795,0 L23.5629921,0 C20.9263307,0 18.7812756,2.15630078 18.7812756,4.80678516 L18.7812756,12.7543281 C18.7812756,13.3773965 19.2835039,13.8822578 19.9033228,13.8822578 C20.5231417,13.8822578 21.0253701,13.3773965 21.0253701,12.7543281 L21.0253701,10.0429355 L64.6184016,10.0429355 L64.6184016,49.3339902 C64.4804646,49.2825566 64.3417795,49.2335293 64.2023465,49.1870586 L64.2023465,48.5924141 C64.2023465,46.8575078 62.7982913,45.4460918 61.0725827,45.4460918 L59.5299921,45.4460918 C57.8042835,45.4460918 56.4002283,46.8575078 56.4002283,48.5924141 L56.4002283,49.122541 C55.7596142,49.3242148 55.1339606,49.5774727 54.5329921,49.8787051 L54.1751339,49.5189707 C53.5840394,48.924627 52.7980079,48.5972266 51.9618583,48.5972266 C51.1260079,48.5972266 50.3399764,48.924627 49.7488819,49.5188203 L48.658252,50.6148672 C48.0671575,51.2090605 47.7414646,51.9992129 47.7414646,52.8398965 C47.7414646,53.6804297 48.0671575,54.4704316 48.6581024,55.0644746 L48.9516299,55.3593906 C48.6241417,55.9827598 48.3479685,56.6336504 48.1275984,57.3015352 L47.736378,57.3015352 C46.0106693,57.3015352 44.6066142,58.7129512 44.6066142,60.447707 L44.6066142,60.455377 L21.0253701,60.455377 L21.0253701,53.1606797 C21.0253701,52.5376113 20.5231417,52.03275 19.9033228,52.03275 C19.2835039,52.03275 18.7812756,52.5376113 18.7812756,53.1606797 L18.7812756,65.574373 C18.7812756,68.2248574 20.9263307,70.3811582 23.5629921,70.3811582 L47.8367638,70.3811582 C47.9732047,70.9248203 48.2534173,71.4235156 48.6581024,71.8304727 L49.7488819,72.9272715 C50.340126,73.5213145 51.1261575,73.8485645 51.9618583,73.8485645 C52.7978583,73.8485645 53.5837402,73.5213145 54.1749843,72.9271211 L54.3995433,72.7012344 C55.0418031,73.0323945 55.7120394,73.3085117 56.4002283,73.5249238 L56.4002283,73.8538281 C56.4002283,75.588584 57.8042835,77 59.5299921,77 L61.0725827,77 C62.7982913,77 64.2023465,75.588584 64.2023465,73.8538281 L64.2023465,73.4605566 C64.8668976,73.2388809 65.5145433,72.9614102 66.1342126,72.6320547 L66.4275906,72.9272715 C67.0188346,73.5214648 67.8047165,73.8487148 68.6407165,73.8487148 C69.4764173,73.8487148 70.2624488,73.5214648 70.8538425,72.9272715 L71.944622,71.8307734 C72.5355669,71.2364297 72.8611102,70.4462773 72.8611102,69.6061953 C72.8611102,68.7661133 72.5355669,67.9759609 71.9444724,67.3814668 L71.586315,67.021582 C71.8859764,66.4174629 72.138063,65.7886797 72.3385354,65.1445566 L72.8660472,65.1445566 C74.5917559,65.1445566 75.995811,63.7331406 75.995811,61.9983848 L75.995811,60.4478574 C75.995811,58.7131016 74.5919055,57.3018359 72.8661969,57.3018359 Z M21.0253701,7.78707617 L21.0253701,4.80678516 C21.0253701,3.40018164 22.1637244,2.25585938 23.5629921,2.25585938 L62.0807795,2.25585938 C63.4800472,2.25585938 64.6184016,3.40018164 64.6184016,4.80678516 L64.6184016,7.78707617 L21.0253701,7.78707617 L21.0253701,7.78707617 Z M21.0253701,65.5745234 L21.0253701,62.7113867 L44.6877008,62.7113867 C45.0099528,64.1038535 46.2545276,65.1445566 47.736378,65.1445566 L48.0634173,65.1445566 C48.2787008,65.8363535 48.5535276,66.5102539 48.8831102,67.1557305 L48.6584016,67.3813164 C48.4365354,67.6043457 48.2520709,67.8548965 48.1081496,68.1254492 L23.5629921,68.1254492 C22.1637244,68.1254492 21.0253701,66.981127 21.0253701,65.5745234 Z M73.7518661,61.9983848 C73.7518661,62.4894102 73.3546614,62.8886973 72.8661969,62.8886973 L72.023315,62.8886973 C71.2133465,62.8886973 70.4943386,63.4316074 70.2747165,64.2086758 C70.0746929,64.9155117 69.7992677,65.603248 69.4560709,66.2530859 C69.0869921,66.9521016 69.2205906,67.8339922 69.7810157,68.3973555 L70.3572992,68.9766602 C70.527252,69.1473535 70.6168661,69.3651191 70.6168661,69.6063457 C70.6168661,69.8475723 70.5271024,70.0653379 70.3574488,70.2358809 L69.2669685,71.3320781 C69.0971654,71.5029219 68.8805354,71.5930059 68.6405669,71.5930059 C68.4005984,71.5930059 68.1839685,71.5027715 68.014315,71.3323789 L67.4965276,70.8115762 C67.151685,70.465377 66.6940394,70.274832 66.2075197,70.274832 C65.8985827,70.274832 65.5932362,70.3549902 65.3240945,70.5070352 C64.6650787,70.8797031 63.964622,71.180334 63.2427717,71.4002051 C62.4863622,71.6306035 61.9581024,72.3527793 61.9581024,73.1564668 L61.9581024,73.8541289 C61.9581024,74.3451543 61.5608976,74.7444414 61.0724331,74.7444414 L59.5298425,74.7444414 C59.041378,74.7444414 58.6441732,74.3451543 58.6441732,73.8541289 L58.6441732,73.2109082 C58.6441732,72.3947383 58.1049921,71.671209 57.3330236,71.4513379 C56.5881339,71.2386855 55.864937,70.9410625 55.1834803,70.5665898 C54.9207717,70.4223652 54.6236535,70.3461172 54.3238425,70.3461172 C53.8442047,70.3461172 53.3738425,70.542377 53.0334882,70.8843652 L52.587811,71.3323789 C52.4181575,71.5030723 52.2016772,71.5931562 51.9615591,71.5931562 C51.7215906,71.5931562 51.5049606,71.5029219 51.3353071,71.3325293 L50.2446772,70.2358809 C50.074874,70.0653379 49.9852598,69.8477227 49.9852598,69.6064961 C49.9852598,69.5678457 49.9876535,69.5297969 49.9921417,69.4923496 C49.9984252,69.4633242 50.0035118,69.433998 50.0074016,69.4042207 C50.0436063,69.2436035 50.1237953,69.0983262 50.2445276,68.9769609 L50.6905039,68.5287969 C51.2579606,67.9580645 51.3876693,67.0692559 51.0061732,66.3673828 C50.6339528,65.6828047 50.3377323,64.9558164 50.126189,64.2074727 C49.907315,63.4311562 49.1875591,62.888998 48.3757953,62.888998 L47.7359291,62.888998 C47.2474646,62.888998 46.8502598,62.4897109 46.8502598,61.9986855 L46.8502598,60.4481582 C46.8502598,59.9571328 47.2474646,59.5578457 47.7359291,59.5578457 L48.4299528,59.5578457 C49.2294488,59.5578457 49.9478583,59.0268164 50.1770551,58.2664414 C50.3959291,57.5408066 50.6948425,56.8366777 51.0654173,56.174207 C51.4615748,55.4663184 51.3369528,54.5681855 50.7621654,53.9897832 L50.2446772,53.469582 C50.0750236,53.2991895 49.9854094,53.0815742 49.9854094,52.8403477 C49.9854094,52.5989707 50.0751732,52.3812051 50.2446772,52.2106621 L51.3354567,51.1144648 C51.5052598,50.9436211 51.7217402,50.8535371 51.9617087,50.8535371 C52.2016772,50.8535371 52.4181575,50.9437715 52.5881102,51.1144648 L53.1643937,51.6937695 C53.5042992,52.0353066 53.9743622,52.231416 54.4537008,52.231416 C54.7515669,52.231416 55.0358189,52.1601309 55.2977795,52.0202676 C55.9434803,51.6755723 56.6277795,51.3987031 57.3307795,51.1976309 C58.1042441,50.976707 58.6443228,50.2539297 58.6443228,49.4397148 L58.6443228,48.5927148 C58.6443228,48.1016895 59.0415276,47.702252 59.5299921,47.702252 L61.0725827,47.702252 C61.5610472,47.702252 61.958252,48.1016895 61.958252,48.5927148 L61.958252,49.4985176 C61.958252,50.2979941 62.4857638,51.0171621 63.241126,51.2472598 C63.9112126,51.4514902 64.5631969,51.7249004 65.1794252,52.0602715 C65.198126,52.07125 65.2172756,52.0814766 65.2367244,52.0914023 C65.4958425,52.2285586 65.7868268,52.3010469 66.0796063,52.3010469 C66.5658268,52.3010469 67.0233228,52.110502 67.3681654,51.7643027 L68.0144646,51.1146152 C68.1841181,50.9439219 68.4005984,50.8538379 68.6407165,50.8538379 C68.880685,50.8538379 69.0971654,50.9440723 69.2671181,51.1147656 L70.3575984,52.2106621 C70.5242598,52.3781973 70.6161181,52.6019785 70.6161181,52.840498 C70.6161181,53.0790176 70.5244094,53.302498 70.3575984,53.4700332 L69.7111496,54.1200215 C69.1438425,54.6906035 69.0154803,55.581668 69.398622,56.2865488 C69.740622,56.9163848 70.0188898,57.5830664 70.2253465,58.2683965 C70.4542441,59.0278691 71.1696614,59.5581465 71.9649685,59.5581465 L72.8661969,59.5581465 C73.3546614,59.5581465 73.7518661,59.9574336 73.7518661,60.448459 L73.7518661,61.9983848 L73.7518661,61.9983848 Z" id="Shape"></path>
                        </g>
                    </g>
                </g>
            </g>
        </g>
    </g>
</svg>