<?xml version="1.0" encoding="UTF-8"?>
<svg width="48px" height="46px" viewBox="0 0 48 46" version="1.1" xmlns="http://www.w3.org/2000/svg" xmlns:xlink="http://www.w3.org/1999/xlink">
    <!-- Generator: sketchtool 58 (101010) - https://sketch.com -->
    <title>1AA6F7DC-79BB-48A7-838F-D1E4100077CF</title>
    <desc>Created with sketchtool.</desc>
    <g id="Page-1" stroke="none" stroke-width="1" fill="none" fill-rule="evenodd">
        <g id="Apple-TV" transform="translate(-258.000000, -63.000000)" fill="#FFFFFF" fill-rule="nonzero">
            <g id="header">
                <g id="ikony" transform="translate(258.000000, 63.000000)">
                    <path d="M16,36.8793103 C16,37.0974272 15.8296296,37.2719207 15.6148148,37.2719207 C15.3703704,37.3046382 15.2,37.1301447 15.2,36.8793103 C15.2,36.6611935 15.3703704,36.4867 15.5851852,36.4867 C15.8074074,36.4539825 16,36.628476 16,36.8793103 Z M12.8104226,36.7387748 C12.7583325,36.9417439 12.9071613,37.1751584 13.1304044,37.2360492 C13.3238817,37.3375338 13.5471249,37.2360492 13.5917735,37.03308 C13.6364221,36.8301109 13.4950348,36.5966964 13.2717917,36.5053603 C13.0783143,36.4343211 12.8625126,36.5358056 12.8104226,36.7387748 Z M17.1507552,36.487173 C16.9310478,36.5589523 16.7795254,36.7537817 16.8022538,36.9896279 C16.8249821,37.1947115 17.0219612,37.3280159 17.2492448,37.2562366 C17.4689522,37.1844574 17.6204746,36.9896279 17.5977462,36.7845443 C17.5750179,36.5897149 17.3704627,36.4564105 17.1507552,36.487173 Z M23.6903226,0 C10.2677419,0 0,10.015975 0,23.208907 C0,33.7575455 6.75483871,42.7842884 16.4032258,45.9612453 C17.6419355,46.1800178 18.0774194,45.4285819 18.0774194,44.8103118 C18.0774194,44.2205773 18.0483871,40.9675256 18.0483871,38.9700377 C18.0483871,38.9700377 11.2741935,40.3968148 9.8516129,36.1355073 C9.8516129,36.1355073 8.7483871,33.3675597 7.16129032,32.6541712 C7.16129032,32.6541712 4.94516129,31.1608112 7.31612903,31.1893467 C7.31612903,31.1893467 9.72580645,31.3795837 11.0516129,33.6434033 C13.1709677,37.3149763 16.7225806,36.2591613 18.1064516,35.6313794 C18.3290323,34.1094838 18.9580645,33.0536688 19.6548387,32.4258869 C14.2451613,31.8361523 8.78709677,31.0656927 8.78709677,21.9152958 C8.78709677,19.2995378 9.52258065,17.9869029 11.0709677,16.3128178 C10.8193548,15.6945478 9.99677419,13.1453727 11.3225806,9.85427363 C13.3451613,9.23600356 18,12.4224724 18,12.4224724 C19.9354839,11.8898089 22.016129,11.6139653 24.0774194,11.6139653 C26.1387097,11.6139653 28.2193548,11.8898089 30.1548387,12.4224724 C30.1548387,12.4224724 34.8096774,9.22649172 36.8322581,9.85427363 C38.1580645,13.1548846 37.3354839,15.6945478 37.083871,16.3128178 C38.6322581,17.9964148 39.5806452,19.3090497 39.5806452,21.9152958 C39.5806452,31.0942283 33.8806452,31.8266405 28.4709677,32.4258869 C29.3612903,33.1773228 30.116129,34.6040999 30.116129,36.8393839 C30.116129,40.0448764 30.0870968,44.0113167 30.0870968,44.7912881 C30.0870968,45.4095582 30.5322581,46.1609941 31.7612903,45.9422216 C41.4387097,42.7842884 48,33.7575455 48,23.208907 C48,10.015975 37.1129032,0 23.6903226,0 Z M9.68584731,32.5883828 C9.54740713,32.6933539 9.57935487,32.9347873 9.76039201,33.1342323 C9.93077991,33.302186 10.1757125,33.3756657 10.3141527,33.2392034 C10.4525929,33.1342323 10.4206451,32.8927989 10.239608,32.6933539 C10.0692201,32.5254002 9.82428748,32.4519205 9.68584731,32.5883828 Z M8.02528851,31.8695583 C7.94580426,32.057132 8.05935319,32.2879919 8.28645106,32.4322793 C8.46812936,32.5765667 8.69522723,32.5332805 8.77471149,32.3312781 C8.85419574,32.1437044 8.74064681,31.9128446 8.51354894,31.7685571 C8.28645106,31.6819847 8.10477277,31.7252709 8.02528851,31.8695583 Z M11.2765651,35.7760767 C11.1402064,35.8880681 11.1913409,36.14651 11.3873565,36.3101898 C11.5833721,36.5083286 11.8305222,36.5341728 11.9413136,36.3963371 C12.052105,36.2843457 12.0009705,36.0259038 11.8305222,35.862224 C11.643029,35.6640852 11.3873565,35.638241 11.2765651,35.7760767 Z M10.52,34.1533085 C10.36,34.2398657 10.36,34.4649146 10.52,34.6639962 C10.68,34.8630778 10.95,34.9496351 11.08,34.8630778 C11.24,34.7505534 11.24,34.5255046 11.08,34.326423 C10.94,34.1273413 10.68,34.0407841 10.52,34.1533085 Z" id="Shape"></path>
                </g>
            </g>
        </g>
    </g>
</svg>