<?xml version="1.0" encoding="UTF-8"?>
<svg width="48px" height="48px" viewBox="0 0 48 48" version="1.1" xmlns="http://www.w3.org/2000/svg" xmlns:xlink="http://www.w3.org/1999/xlink">
    <!-- Generator: sketchtool 58 (101010) - https://sketch.com -->
    <title>FDF9CB6F-58CC-42CF-AA91-9A2FD3E74E8F</title>
    <desc>Created with sketchtool.</desc>
    <g id="Page-1" stroke="none" stroke-width="1" fill="none" fill-rule="evenodd">
        <g id="Apple-TV" transform="translate(-326.000000, -63.000000)" fill="#FFFFFF">
            <g id="header">
                <g id="ikony" transform="translate(258.000000, 63.000000)">
                    <path d="M92,0 C105.254834,0 116,10.745166 116,24 C116,37.254834 105.254834,48 92,48 C78.745166,48 68,37.254834 68,24 C68,10.745166 78.745166,0 92,0 Z M86.230303,20.2666667 L81.4787879,20.2666667 L81.4787879,35.2 L86.230303,35.2 L86.230303,20.2666667 Z M97.4606157,19.5878788 C95.1298934,19.5878788 93.5676544,20.8506988 92.9281113,22.0473225 L92.9281113,22.0473225 L92.8610624,22.0473225 L92.8610624,19.96978 L88.2666667,19.96978 L88.2666667,35.2 L93.0518938,35.2 L93.0518938,27.6587242 C93.0518938,25.672838 93.4335567,23.7531479 95.9241648,23.7531479 C98.3786696,23.7531479 98.4147729,26.0190951 98.4147729,27.7860246 L98.4147729,35.2 L103.2,35.2 L103.199064,26.6073574 C103.165634,22.6241785 102.218985,19.5878788 97.4606157,19.5878788 Z M83.5151515,12.8 C82.0156148,12.8 80.8,14.0098791 80.8,15.5023406 C80.8,16.9944306 82.0159881,18.230303 83.5151515,18.230303 C85.0138102,18.230303 86.230303,16.9944306 86.230303,15.5023406 C86.230303,14.0098791 85.0146883,12.8 83.5151515,12.8 Z" id="Combined-Shape"></path>
                </g>
            </g>
        </g>
    </g>
</svg>