<?xml version="1.0" encoding="UTF-8"?>
<svg width="19px" height="10px" viewBox="0 0 19 10" version="1.1" xmlns="http://www.w3.org/2000/svg" xmlns:xlink="http://www.w3.org/1999/xlink">
    <!-- Generator: Sketch 58 (84663) - https://sketch.com -->
    <title>long-arrow-alt-right copy</title>
    <desc>Created with Sketch.</desc>
    <g id="Page-1" stroke="none" stroke-width="1" fill="none" fill-rule="evenodd">
        <g id="Apple-TV" transform="translate(-1201.000000, -5501.000000)" fill-rule="nonzero">
            <g id="myworks" transform="translate(0.000000, 2050.000000)">
                <g id="burger" transform="translate(0.000000, 2834.000000)">
                    <g id="copy" transform="translate(1092.000000, 89.000000)">
                        <g id="seemore" transform="translate(3.000000, 522.000000)">
                            <g id="long-arrow-alt-right-copy" transform="translate(106.000000, 6.000000)">
                                <path d="M13.6136798,3.86520514 L1.48214205,3.86520514 C1.2158791,3.86520514 1,4.08479622 1,4.35563747 L1,6.64432166 C1,6.91516291 1.2158791,7.13475399 1.48214205,7.13475399 L13.6136798,7.13475399 L13.6136798,9.01715586 C13.6136798,9.89102453 14.6523343,10.3286536 15.2598333,9.71074978 L18.7175552,6.19357348 C19.0941483,5.81050497 19.0941483,5.18945416 18.7175552,4.80642652 L15.2598333,1.28925022 C14.6523745,0.671346355 13.6136798,1.10897547 13.6136798,1.98284414 L13.6136798,3.86520514 Z" id="Path-Copy" fill="#99C2CB"></path>
                                <path d="M12.6136798,2.86520514 L0.48214205,2.86520514 C0.215879103,2.86520514 0,3.08479622 0,3.35563747 L0,5.64432166 C0,5.91516291 0.215879103,6.13475399 0.48214205,6.13475399 L12.6136798,6.13475399 L12.6136798,8.01715586 C12.6136798,8.89102453 13.6523343,9.32865364 14.2598333,8.71074978 L17.7175552,5.19357348 C18.0941483,4.81050497 18.0941483,4.18945416 17.7175552,3.80642652 L14.2598333,0.289250217 C13.6523745,-0.328653645 12.6136798,0.108975468 12.6136798,0.982844135 L12.6136798,2.86520514 Z" id="Path" fill="#1A1A1A"></path>
                            </g>
                        </g>
                    </g>
                </g>
            </g>
        </g>
    </g>
</svg>